<svg width="20" height="20" viewBox="0 0 20 20" fill="none" xmlns="http://www.w3.org/2000/svg">
<path d="M12.6042 17.5832L5.58334 10.5832C5.5 10.4998 5.44084 10.4096 5.40584 10.3123C5.37084 10.2151 5.35361 10.1109 5.35417 9.99984C5.35417 9.88873 5.37139 9.78456 5.40584 9.68734C5.44028 9.59012 5.49945 9.49984 5.58334 9.4165L12.6042 2.39567C12.7986 2.20123 13.0417 2.104 13.3333 2.104C13.625 2.104 13.875 2.20817 14.0833 2.4165C14.2917 2.62484 14.3958 2.86789 14.3958 3.14567C14.3958 3.42345 14.2917 3.6665 14.0833 3.87484L7.95834 9.99984L14.0833 16.1248C14.2778 16.3193 14.375 16.559 14.375 16.844C14.375 17.129 14.2708 17.3754 14.0625 17.5832C13.8542 17.7915 13.6111 17.8957 13.3333 17.8957C13.0556 17.8957 12.8125 17.7915 12.6042 17.5832Z" fill="#474A51"/>
</svg>
