<svg width="18" height="18" viewBox="0 0 18 18" fill="none" xmlns="http://www.w3.org/2000/svg">
<path d="M15.825 6.65614L9.525 12.9749C9.45 13.0499 9.36875 13.1031 9.28125 13.1346C9.19375 13.1661 9.1 13.1816 9 13.1811C8.9 13.1811 8.80625 13.1656 8.71875 13.1346C8.63125 13.1036 8.55 13.0504 8.475 12.9749L2.15625 6.65614C1.98125 6.48114 1.89375 6.26239 1.89375 5.99989C1.89375 5.73739 1.9875 5.51239 2.175 5.32489C2.3625 5.13739 2.58125 5.04364 2.83125 5.04364C3.08125 5.04364 3.3 5.13739 3.4875 5.32489L9 10.8374L14.5125 5.32489C14.6875 5.14989 14.9033 5.06239 15.1598 5.06239C15.4163 5.06239 15.638 5.15614 15.825 5.34364C16.0125 5.53114 16.1063 5.74989 16.1063 5.99989C16.1063 6.24989 16.0125 6.46864 15.825 6.65614Z" fill="black"/>
</svg>
