<svg width="20" height="20" viewBox="0 0 20 20" fill="none" xmlns="http://www.w3.org/2000/svg">
<path d="M7.39583 2.41683L14.4167 9.41683C14.5 9.50016 14.5592 9.59044 14.5942 9.68766C14.6292 9.78488 14.6464 9.88905 14.6458 10.0002C14.6458 10.1113 14.6286 10.2154 14.5942 10.3127C14.5597 10.4099 14.5006 10.5002 14.4167 10.5835L7.39583 17.6043C7.20139 17.7988 6.95833 17.896 6.66667 17.896C6.375 17.896 6.125 17.7918 5.91667 17.5835C5.70833 17.3752 5.60417 17.1321 5.60417 16.8543C5.60417 16.5766 5.70833 16.3335 5.91667 16.1252L12.0417 10.0002L5.91666 3.87516C5.72222 3.68072 5.625 3.441 5.625 3.156C5.625 2.871 5.72916 2.62461 5.9375 2.41683C6.14583 2.2085 6.38889 2.10433 6.66666 2.10433C6.94444 2.10433 7.1875 2.2085 7.39583 2.41683Z" fill="#474A51"/>
</svg>
