<svg width="28" height="30" viewBox="0 0 28 30" fill="none" xmlns="http://www.w3.org/2000/svg">
<path d="M17.0502 17.027L16.4699 18.5562C16.4153 18.7202 16.3153 18.8653 16.1814 18.9746C16.0267 19.0566 15.8519 19.0932 15.6773 19.08H12.4923V9.69078L13.7452 9.57726V9.46375H10.2004V9.57726L11.382 9.69078V19.0248L10.2118 19.234V19.4351H17.2495L17.4521 17.027H17.0502ZM11.8132 19.0394H11.5636V9.77996H11.8132V19.0394Z" fill="#285DA1"/>
<path d="M23.4683 10.4157V4.95405L14.0333 0.107028L13.8259 0L13.6184 0.107028L4.25474 4.91676L4.18342 4.95405V10.2049L0 14.6951L4.19152 19.3703V25.0459L13.6152 29.8897L13.7675 29.9692L13.8275 30L14.035 29.8849L23.4651 24.7378V19.5811L27.6566 14.9984L23.4683 10.4157ZM4.18018 16.8097L2.36158 14.7827L4.18018 12.8368V16.8097ZM4.18018 12.4103L2.04551 14.6951L1.96771 14.7795L4.18018 17.2476V18.4735L0.810426 14.7016L4.19152 11.0805L4.18018 12.4103ZM4.81069 5.27513L12.4562 1.34594L4.81393 9.53189L4.81069 5.27513ZM4.81069 24.7232V20.0724L12.5454 28.7027L4.81069 24.7232ZM22.8346 24.4281L15.236 28.5811L22.8378 20.2703L22.8346 24.4281ZM22.8346 19.3816L13.8259 29.2297L4.81069 19.1757V17.9481L13.821 28.0022L22.8346 18.1524V19.3816ZM22.8346 17.7162L13.8275 27.5676L4.81393 17.5135V12.1622L13.8242 2.51675L22.8378 12.3665L22.8346 17.7162ZM22.8346 11.9335L13.9393 2.21514L13.821 2.08703L4.80745 11.7357V10.4076L13.8178 0.762164L22.8313 10.6135L22.8346 11.9335ZM22.8346 9.72811L15.1452 1.32487L22.8346 5.27513V9.72811ZM23.4651 13.0541L25.2853 15.0405L23.4683 17.027L23.4651 13.0541ZM23.4651 17.46L25.6095 15.1249L25.6873 15.0405L23.4748 12.6227V11.2995L26.8575 14.9984L23.4748 18.6957L23.4651 17.46Z" fill="#285DA1"/>
</svg>
