<svg width="131" height="80" viewBox="0 0 131 80" fill="none" xmlns="http://www.w3.org/2000/svg">
<path d="M15.4228 74.3999L15.2827 79.5147H0V78.9715L2.50527 78.7271V58.9923L0 58.7497V58.2065H7.84147V58.7497L5.18156 58.9959V78.8285H11.784C12.2334 78.8285 12.5646 78.7615 12.761 78.6311C13.0192 78.4108 13.2112 78.1239 13.316 77.8019L14.5786 74.3999H15.4228Z" fill="#285DA1"/>
<path d="M39.4094 63.298C38.6203 61.6918 37.4175 60.3224 35.9235 59.3293C34.8691 58.6239 33.6703 58.1607 32.4139 57.9732V58.3734C33.9003 58.6956 35.0993 59.5701 35.9999 61.004C37.1594 62.8472 37.7398 65.4634 37.741 68.8527C37.7422 72.242 37.1619 74.8546 35.9999 76.6905C35.0993 78.1154 33.9003 78.9862 32.4139 79.3031V79.734C33.6695 79.5454 34.8677 79.0836 35.9235 78.3815C37.4174 77.3861 38.6201 76.015 39.4094 74.4074C40.243 72.6731 40.6756 70.7751 40.6756 68.8527C40.6756 66.9303 40.243 65.0322 39.4094 63.298ZM22.6712 63.298C21.8353 65.0316 21.4014 66.9299 21.4014 68.8527C21.4014 70.7755 21.8353 72.6738 22.6712 74.4074C23.4589 76.016 24.6619 77.3875 26.1571 78.3815C27.2694 79.1196 28.5387 79.5906 29.865 79.7575V79.3393C28.2882 79.0568 27.0292 78.1721 26.088 76.685C24.926 74.8516 24.3456 72.239 24.3468 68.8473C24.3481 65.4555 24.9284 62.8393 26.088 60.9986C27.0268 59.5055 28.2858 58.6148 29.865 58.3263V57.937C28.5402 58.1078 27.2733 58.5826 26.1644 59.3239C24.6703 60.3176 23.469 61.6893 22.6839 63.298H22.6712Z" fill="#285DA1"/>
<path d="M30.025 79.9386L29.843 79.9151C28.4951 79.7404 27.2058 79.2591 26.0751 78.5083C24.5587 77.4968 23.3368 76.1055 22.5328 74.4744C21.6861 72.7185 21.2466 70.7958 21.2466 68.8482C21.2466 66.9006 21.6861 64.9779 22.5328 63.222C23.335 61.5907 24.5572 60.2001 26.0751 59.1917C27.2046 58.4377 28.4943 57.9543 29.843 57.7795L30.025 57.7578V58.4585L29.894 58.482C28.3694 58.759 27.134 59.6335 26.2243 61.0819C25.0836 62.8925 24.5068 65.4996 24.5068 68.8473C24.5068 72.195 25.0836 74.8039 26.2225 76.6C27.1322 78.0484 28.3675 78.9102 29.894 79.1836L30.025 79.2071V79.9386ZM29.7066 58.1254C28.4693 58.3114 27.2888 58.7677 26.2498 59.4615C24.7782 60.4395 23.5936 61.7883 22.8166 63.3704C21.9914 65.0817 21.563 66.9556 21.563 68.8536C21.563 70.7517 21.9914 72.6256 22.8166 74.3368C23.5949 75.9191 24.7792 77.2688 26.2498 78.2494C27.2903 78.9398 28.4703 79.3946 29.7066 79.5819V79.4769C28.1474 79.1601 26.8866 78.253 25.9532 76.7756C24.7816 74.9271 24.1884 72.262 24.1884 68.8527C24.1884 65.4435 24.7816 62.7748 25.9587 60.928C26.8938 59.4434 28.1547 58.5291 29.712 58.2123L29.7066 58.1254ZM32.2537 79.9187V79.1746L32.3811 79.1474C33.8202 78.8414 34.9919 77.985 35.8633 76.6127C37.0041 74.8021 37.5808 72.2022 37.5808 68.86C37.5808 65.5177 37.0041 62.9051 35.8633 61.0946C34.9919 59.7077 33.8202 58.8477 32.3792 58.5363L32.2537 58.5092V57.7958L32.4356 57.823C33.7147 58.015 34.9351 58.4868 36.0089 59.2044C37.5254 60.2143 38.7473 61.6045 39.5512 63.2347C40.3957 64.9912 40.8341 66.9137 40.8341 68.8609C40.8341 70.8081 40.3957 72.7306 39.5512 74.4871C38.7462 76.1175 37.5246 77.5086 36.0089 78.5209C34.9334 79.2348 33.7137 79.7052 32.4356 79.8988L32.2537 79.9187ZM32.5739 79.4298V79.5475C33.7396 79.3452 34.85 78.9031 35.8342 78.2494C37.3036 77.2673 38.4876 75.918 39.2674 74.3368C40.0902 72.6249 40.5172 70.7513 40.5172 68.8536C40.5172 66.956 40.0902 65.0824 39.2674 63.3704C38.4889 61.7893 37.3046 60.4409 35.8342 59.4615C34.8508 58.8053 33.7402 58.3612 32.5739 58.1579V58.2485C34.044 58.5997 35.2411 59.4977 36.1344 60.919C37.3061 62.782 37.8992 65.4453 37.8992 68.8527C37.8992 72.2601 37.3061 74.9216 36.1344 76.7756C35.2375 78.1896 34.0421 79.0822 32.5739 79.4298Z" fill="#285DA1"/>
<path d="M57.2523 58.3534V58.5979L59.1171 58.7499C59.3638 58.7472 59.6068 58.8097 59.8212 58.931C59.892 58.9835 59.9485 59.0526 59.9857 59.1323C60.0229 59.212 60.0395 59.2996 60.0341 59.3872C60.0345 59.5869 59.9924 59.7844 59.9104 59.9666L55.9551 68.1701L56.2371 68.6137L60.4034 59.9612C60.629 59.4904 60.8364 59.1827 61.0329 59.0306C61.2294 58.8785 61.5678 58.7807 62.0554 58.7427L63.7674 58.5906V58.3462L57.2523 58.3534Z" fill="#285DA1"/>
<path d="M57.0934 58.1959V58.739L59.1111 58.9002C59.3274 58.8987 59.5406 58.9509 59.7315 59.0522C59.7832 59.0894 59.8242 59.1393 59.8504 59.1971C59.8765 59.255 59.887 59.3186 59.8807 59.3818C59.8806 59.5579 59.8428 59.7319 59.7697 59.8923L55.7671 68.1773L56.2474 68.9432L60.5411 60.0281C60.6733 59.7013 60.8715 59.4049 61.1233 59.1572C61.2434 59.0649 61.5017 58.9454 62.0621 58.9002L63.9197 58.7336V58.1904L57.0934 58.1959ZM56.1382 68.1701L60.059 60.0335C60.1515 59.8318 60.1993 59.6126 60.1991 59.3908C60.2034 59.2775 60.1802 59.1649 60.1314 59.0624C60.0826 58.96 60.0097 58.8708 59.9189 58.8024C59.6801 58.6649 59.4087 58.5936 59.1329 58.596L58.1432 58.5145H62.9518L62.0421 58.596C61.5199 58.634 61.1597 58.739 60.9341 58.9128C60.7085 59.0866 60.4956 59.4071 60.2591 59.9014L56.2183 68.2932L56.1382 68.1701Z" fill="#285DA1"/>
<path d="M55.2473 71.0506V78.7236L57.9018 78.9698V79.5093H49.9111V78.9698L52.5656 78.7236V71.2026L45.9904 58.987L43.425 58.7408V58.1958H51.3557V58.7408L48.794 58.9743L54.8179 70.1761L55.2473 71.0506Z" fill="#285DA1"/>
<path d="M69.8855 58.8405L67.3784 58.5979V58.3535H74.8997V58.5979L72.2398 58.8405V78.9899H78.9987C79.4839 78.9899 79.8405 78.9139 80.0685 78.7618C80.2923 78.6097 80.4979 78.3092 80.6816 77.8565L82.7611 72.6512L83.125 72.7128L82.3591 79.3538H67.3784V79.1112L69.8855 78.8686V58.8405Z" fill="#285DA1"/>
<path d="M82.5066 79.5132H67.2239V78.97L69.7328 78.7274V58.9927L67.2239 58.7482V58.2051H75.0672V58.7482L72.4054 58.9908V78.8306H79.0061C79.4591 78.8306 79.7902 78.7636 79.9867 78.6297C80.2442 78.4102 80.4362 78.1246 80.5416 77.8041L82.6667 72.4811L83.3107 72.5879L82.5066 79.5132ZM68.1445 79.1963H82.2227L82.9505 72.8595L82.8595 72.845L80.8309 77.9217C80.6326 78.4033 80.4143 78.7202 80.1614 78.8922C79.9085 79.0642 79.5264 79.1475 79.0006 79.1475H72.087V58.6885L74.0883 58.5074H68.139L70.0421 58.6885V79.0026L68.1445 79.1963Z" fill="#285DA1"/>
<path d="M103.68 72.9315L101.663 77.8616C101.48 78.3094 101.276 78.6111 101.051 78.7668C100.827 78.9225 100.47 78.9986 99.9798 78.995H93.1281V68.5482H97.6565C98.1417 68.5482 98.4885 68.6303 98.6972 68.7945C98.9009 68.9538 99.041 69.2706 99.1265 69.7359L99.6432 72.2001H100.007V64.4148H99.6432L99.1247 66.8807C99.0392 67.3497 98.8991 67.6629 98.6953 67.8222C98.4916 67.9815 98.1495 68.0684 97.6547 68.0684H93.1281V60.8716H90.7756V78.8664L88.2686 79.1126V79.3535H103.255L104.021 72.9623L103.68 72.9315Z" fill="#285DA1"/>
<path d="M88.1086 58.7409V58.1978H103.433L103.884 64.2178L103.302 64.2775L101.548 59.9069C101.366 59.4706 101.195 59.1827 101.003 59.065C100.81 58.9473 100.493 58.884 100.038 58.884H93.2902L88.1086 58.7409Z" fill="#285DA1"/>
<path d="M103.579 72.7631L101.514 77.8018C101.41 78.1221 101.222 78.4087 100.968 78.6311C100.771 78.7614 100.44 78.8284 99.9855 78.8284H93.2902V68.713H97.6567C98.1079 68.713 98.4208 68.78 98.5955 68.9194C98.7701 69.0588 98.8939 69.343 98.9703 69.7739L99.5161 72.3648H100.175V64.2536H99.5161L98.9703 66.85C98.8939 67.2718 98.7701 67.5597 98.5955 67.6955C98.4208 67.8313 98.1079 67.9019 97.6567 67.9019H93.2902V60.8716H92.9718V68.2187H97.6567C98.188 68.2187 98.5664 68.13 98.7956 67.9435C99.0249 67.757 99.1941 67.4148 99.2796 66.9079L99.7726 64.5705H99.8527V72.0444H99.7726L99.2796 69.7106C99.1904 69.2 99.0303 68.8614 98.792 68.6713C98.5536 68.4812 98.1843 68.3925 97.6531 68.3925H92.9718V79.1471H99.98C100.508 79.1471 100.89 79.0656 101.141 78.8918C101.392 78.718 101.612 78.4029 101.812 77.9249L103.786 73.1017H103.843L103.115 79.1941H89.0347L90.9323 79.0131V60.8716H90.6139V78.7234L88.1086 78.9678V79.511H103.391L104.19 72.812L103.579 72.7631Z" fill="#285DA1"/>
<path d="M130.842 58.3536V58.598L128.638 58.8406C128.153 58.9022 127.827 59.0229 127.66 59.2027C127.496 59.3838 127.416 59.7205 127.416 60.2057V79.8409H127.116L113.378 60.4538H113.254V77.4981C113.254 77.9809 113.314 78.3207 113.436 78.5174C113.559 78.7112 113.8 78.827 114.164 78.8687L116.334 79.1113V79.3539H109.65V79.1113L111.851 78.8687C112.215 78.827 112.462 78.7112 112.579 78.5174C112.695 78.3237 112.761 77.9851 112.761 77.4981V59.7839L112.637 59.6028C112.433 59.276 112.156 59.0003 111.827 58.7972C111.475 58.6465 111.093 58.5789 110.71 58.5998H110.195V58.3554H114.744L126.795 75.1571H126.934V60.2039C126.934 59.7187 126.872 59.3729 126.752 59.1701C126.632 58.9673 126.388 58.8551 126.024 58.8352L123.546 58.5926V58.3481L130.842 58.3536Z" fill="#285DA1"/>
<path d="M127.574 80.0002H127.028L113.414 60.7814V77.4981C113.414 78.0629 113.501 78.3182 113.574 78.4323C113.669 78.5826 113.876 78.6749 114.189 78.7111L116.503 78.97V79.5132H109.486V78.97L111.833 78.7111C112.148 78.6749 112.355 78.5826 112.45 78.4323C112.521 78.3182 112.608 78.0702 112.608 77.4981V59.8418L112.514 59.6987C112.323 59.3938 112.066 59.1362 111.76 58.9456C111.431 58.8069 111.075 58.745 110.718 58.7645H110.039V58.2051H114.835L126.766 74.8384V60.2039C126.766 59.6372 126.679 59.3728 126.606 59.2515C126.514 59.0976 126.31 59.0107 126 58.9944L123.372 58.7355V58.1924H131V58.7355L128.657 58.9944C128.102 59.0632 127.873 59.2027 127.78 59.3077C127.687 59.4127 127.574 59.6517 127.574 60.2129V80.0002ZM127.192 79.6834H127.256V60.2039C127.256 59.6734 127.349 59.3095 127.542 59.0958C127.734 58.8822 128.087 58.7446 128.62 58.6776L130.169 58.5074H124.287L126.024 58.6776C126.439 58.7011 126.728 58.8387 126.879 59.0886C127.03 59.3384 127.085 59.6843 127.085 60.2039V75.3073H126.721L114.671 58.5128H111.5C111.641 58.5425 111.777 58.5899 111.906 58.6541C112.258 58.8681 112.556 59.1614 112.774 59.5104L112.925 59.7368V77.4981C112.925 78.0195 112.857 78.3816 112.717 78.6025C112.577 78.8234 112.281 78.9791 111.866 79.0261L110.321 79.1963H115.679L114.155 79.0261C113.74 78.9791 113.452 78.8451 113.303 78.6025C113.154 78.3599 113.096 78.0195 113.096 77.4981V60.298H113.46L127.192 79.6834Z" fill="#285DA1"/>
<path d="M80.176 15.7697V7.50102L65.8158 0.162946L65.4992 0L65.1826 0.162946L50.9279 7.44489L50.8205 7.50102V15.451L44.4382 22.2496L50.8205 29.3287V37.9161L65.1808 45.256L65.4137 45.3754L65.5046 45.4225L65.8212 45.2415L80.1742 37.4562V29.6474L86.5566 22.7076L80.176 15.7697ZM50.8205 25.4524L48.0514 22.3745L50.8205 19.4252V25.4524ZM50.8205 18.7897L47.5711 22.2496L47.4529 22.3781L50.8205 26.1132V27.9763L45.6717 22.2641L50.8205 16.7818V18.7897ZM51.7793 7.98624L63.4233 2.03865L51.7793 14.4317V7.98624ZM51.7793 37.4327V30.3915L63.5488 43.4454L51.7793 37.4327ZM79.2154 36.9873L67.6406 43.2734L79.2154 30.6921V36.9873ZM79.2154 29.345L65.501 44.2565L51.7793 29.0336V27.176L65.4955 42.3845L79.2154 27.4711V29.345ZM79.2154 26.8248L65.4992 41.7363L51.7793 26.5188V18.4131L65.4955 3.80754L79.2154 18.7209V26.8248ZM79.2154 18.0691L65.6793 3.3531L65.4974 3.15756L51.7775 17.7667V15.757L65.4919 1.15331L79.2136 16.0702L79.2154 18.0691ZM79.2154 14.7286L67.5096 2.00606L79.2154 7.98081V14.7286ZM80.176 19.7637L82.9451 22.7728L80.176 25.7819V19.7637ZM80.176 26.4355L83.4254 22.9068L83.5419 22.7783L80.176 19.1047V17.1131L85.3249 22.7113L80.176 28.3058V26.4355Z" fill="#285DA1"/>
<path d="M70.4041 25.7712L69.5199 28.0869C69.4358 28.335 69.2824 28.5541 69.0778 28.7187C68.8425 28.8441 68.5761 28.9 68.31 28.8799H63.465V14.6636L65.3736 14.4825V14.3105H59.981V14.4825L61.7803 14.6636V28.7857L60.001 29.1134V29.4248H70.7152L71.0209 25.7694L70.4041 25.7712ZM62.4316 28.8183H62.0514V14.8066H62.4316V28.8183Z" fill="#285DA1"/>
</svg>
